# xmcd CD database file
#
# Track frame offsets:
#	150
#	18953
#	37738
#	62957
#	83709
#	106699
#	123398
#	142765
#	159105
#	178486
#	194905
#	216431
#	229133
#	251866
#
# Disc length: 3562 seconds
#
# Revision: 7
# Processed by: cddbd v1.5.1PL0 Copyright (c) Steve Scherf et al.
# Submitted via: CDex 1.51
#
DISCID=c00de80e
DTITLE=Zeze di Camargo and Luciano 1996 - Indiferença
DYEAR=1996
DGENRE=Sertanejo
TTITLE0=Indiferenca
TTITLE1=Seus olhos
TTITLE2=Preciso ser amado
TTITLE3=Quando a gente ama de mais
TTITLE4=Nao tenha duvida
TTITLE5=E Deus por nos
TTITLE6=Refem de mim
TTITLE7=Saudade dos Beatles
TTITLE8=Outra vez por amor
TTITLE9=Brigue comigo, mas nao va
TTITLE10=Vivendo por viver
TTITLE11=Menina
TTITLE12=Sorriso bonito
TTITLE13=200 anos
EXTD=YEAR: 1996
EXTT0=
EXTT1=
EXTT2=
EXTT3=
EXTT4=
EXTT5=
EXTT6=
EXTT7=
EXTT8=
EXTT9=
EXTT10=
EXTT11=
EXTT12=
EXTT13=
PLAYORDER=
